# xmcd
#
# Track frame offsets:
#	182
#	15482
#	29997
#	49185
#	71350
#	84165
#	102622
#	117420
#	129377
#	144217
#	154552
#
# Disc length: 2256 seconds
#
# Revision: 0
# Processed by: cddbd v1.5.1PL2 Copyright (c) Steve Scherf et al.
# Submitted via: dBpowerAMP V4.0
#
DISCID=8c08ce0b
DTITLE=Betty Boop - 1001 Nuits
DYEAR=1900
DGENRE=
TTITLE0=Vaudou Ali
TTITLE1=Mille et une nuits
TTITLE2=Gonna have fun
TTITLE3=Ne désespérez pas
TTITLE4=Boohos girl
TTITLE5=Salina
TTITLE6=Make it
TTITLE7=Histoire banale
TTITLE8=Le Magisien
TTITLE9=Tout le monde dort
TTITLE10=Voyage à la Havane
EXTD=
EXTT0=
EXTT1=
EXTT2=
EXTT3=
EXTT4=
EXTT5=
EXTT6=
EXTT7=
EXTT8=
EXTT9=
EXTT10=
PLAYORDER=
